<?xml version="1.0" encoding="UTF-8" standalone="no"?>
<!-- Created with Inkscape (http://www.inkscape.org/) -->

<svg
   width="73.821388mm"
   height="73.823875mm"
   viewBox="0 0 73.821388 73.823875"
   version="1.1"
   id="svg5"
   xml:space="preserve"
   xmlns="http://www.w3.org/2000/svg"
   xmlns:svg="http://www.w3.org/2000/svg"><defs
     id="defs2" /><g
     id="g13641"
     transform="translate(-72.219816,-112.5439)"><g
       id="g13645"><path
         style="opacity:1;fill:#e5ff51;fill-opacity:1;stroke:none;stroke-width:0;stroke-dasharray:none;stroke-dashoffset:0;stroke-opacity:1"
         d="m 105.19868,165.36207 c 0,-0.0913 0.45373,-2.41025 1.00829,-5.15316 1.1578,-5.72656 1.20827,-6.61535 0.43336,-7.63131 -0.78808,-1.03323 -1.23119,-1.17523 -3.95827,-1.26855 l -2.43337,-0.0833 6.34611,-8.88397 c 3.49036,-4.88618 6.36614,-8.78227 6.39062,-8.65797 0.0245,0.12429 -0.40633,2.47019 -0.95737,5.21311 -0.55104,2.74292 -1.00189,5.27535 -1.00189,5.62763 0,1.05398 0.73435,2.21121 1.74825,2.75499 0.36989,0.19839 1.11055,0.28537 2.85441,0.33524 l 2.35491,0.0673 -6.25055,8.7648 c -6.67035,9.35345 -6.5345,9.1681 -6.5345,8.91511 z"
         id="path13048" /><path
         d="m 140.4978,171.7088 c -2.51613,-2.51855 -6.59455,-2.51855 -9.11312,0 -2.51114,2.51362 -2.51114,6.59949 0,9.11311 l 0.9833,0.98328 c -2.66646,-0.16019 -5.03467,-1.50325 -6.55767,-3.7384 -1.63133,-2.39041 -1.95908,-5.29833 -0.90686,-7.97953 0.31086,-0.79351 0.12296,-1.70039 -0.4806,-2.30415 l -9.28809,-9.28808 2.53087,-3.54372 9.79328,9.79327 c 0.60634,0.60376 1.51067,0.79352 2.3066,0.48054 2.67875,-1.05227 5.58668,-0.71959 7.97956,0.90934 2.23517,1.52295 3.57575,3.89118 3.73594,6.55513 z m -34.00042,-19.3204 c -0.40936,-0.49779 -1.0178,-0.78612 -1.66346,-0.78612 h -4.41856 l 13.2384,-18.53182 -2.33128,11.66617 c -0.12774,0.63087 0.0348,1.28639 0.44358,1.78418 0.40936,0.49535 1.01779,0.78613 1.66102,0.78613 h 4.41857 l -13.23848,18.5318 2.33379,-11.66616 c 0.12774,-0.63087 -0.0348,-1.28639 -0.44358,-1.78418 M 90.801958,134.16463 c -0.603541,-0.60375 -1.50817,-0.79352 -2.304095,-0.48053 -2.678753,1.05227 -5.586685,0.71959 -7.979561,-0.90934 -2.23517,-1.52296 -3.578196,-3.89118 -3.735929,-6.55513 l 0.980829,0.9808 c 2.518566,2.51856 6.59699,2.51856 9.115555,0 2.511143,-2.51116 2.511143,-6.59949 0,-9.11311 l -0.983276,-0.98081 c 2.663998,0.15773 5.032213,1.50078 6.557575,3.73593 1.628965,2.39287 1.959152,5.29833 0.906928,7.97952 -0.31295,0.79599 -0.122958,1.7004 0.480606,2.30416 l 9.28808,9.28808 -2.53084,3.54372 z m 49.360672,28.41873 c -3.12721,-2.13165 -6.99872,-2.77238 -10.59907,-1.80882 l -9.36696,-9.36694 3.57079,-5.00014 c 0.46804,-0.65552 0.53022,-1.51557 0.16281,-2.23269 -0.36954,-0.71466 -1.10407,-1.16563 -1.90993,-1.16563 h -5.97109 l 3.7803,-18.91132 c 0.19969,-0.99313 -0.32274,-1.98872 -1.25187,-2.39287 -0.92908,-0.40167 -2.01337,-0.10101 -2.60231,0.72205 l -10.31574,14.44348 -7.848929,-7.84892 c 0.96601,-3.60039 0.32552,-7.4694 -1.80883,-10.59911 -2.402663,-3.524 -6.382607,-5.62854 -10.643419,-5.62854 -1.624001,0 -3.208587,0.29821 -4.711816,0.88716 -0.672694,0.26615 -1.168101,0.85266 -1.315992,1.56239 -0.148005,0.70973 0.07127,1.4441 0.583982,1.95669 l 3.925728,3.92568 c 0.837845,0.83787 0.837845,2.20065 0,3.03852 -0.840349,0.83788 -2.198192,0.83788 -3.038564,0 l -3.925648,-3.92569 c -0.509943,-0.51259 -1.246985,-0.73436 -1.956714,-0.5865 -0.709729,0.15033 -1.296234,0.64567 -1.559938,1.31842 -0.591674,1.50325 -0.889605,3.08782 -0.889605,4.71182 0,4.26083 2.104527,8.24073 5.628516,10.64346 3.129712,2.13166 7.001225,2.77485 10.599134,1.80636 l 9.369396,9.36941 -3.570791,5.0026 c -0.468037,0.65308 -0.532294,1.5131 -0.162805,2.23023 0.367439,0.71465 1.104046,1.16316 1.909896,1.16316 h 5.971089 l -3.782799,18.91378 c -0.19696,0.99313 0.32552,1.98872 1.25187,2.39041 0.926629,0.40411 2.013369,0.10597 2.604839,-0.71958 l 10.31328,-14.44348 7.85137,7.84891 c -0.96602,3.6004 -0.32552,7.46941 1.80632,10.59911 2.40273,3.524 6.38268,5.63101 10.64349,5.63101 1.62644,0 3.21105,-0.30066 4.71182,-0.88962 0.67549,-0.26615 1.17056,-0.85267 1.31842,-1.5624 0.14801,-0.70972 -0.0713,-1.4441 -0.58398,-1.95668 l -3.92573,-3.92569 c -0.83784,-0.83787 -0.83784,-2.20065 0,-3.03852 0.83792,-0.83788 2.19822,-0.83788 3.03857,0 l 3.92322,3.92815 c 0.51274,0.51008 1.24941,0.73191 1.95915,0.58406 0.70729,-0.15033 1.29623,-0.64323 1.55993,-1.31842 0.58888,-1.50078 0.88717,-3.08535 0.88717,-4.71181 0,-4.26084 -2.10208,-8.24074 -5.62859,-10.64347"
         style="fill:#a1ff49;fill-opacity:1;fill-rule:nonzero;stroke:#000000;stroke-width:0.5;stroke-dasharray:none;stroke-dashoffset:0;stroke-opacity:1"
         id="path4245" /></g></g></svg>
